<svg width="14" height="16" viewBox="0 0 14 16" fill="none" xmlns="http://www.w3.org/2000/svg">
<path d="M13.0107 11.2267C13.0107 13.9227 11.2209 15.8224 7.13437 15.8224H0.571533V0.355225H6.88973C10.2273 0.355225 12.0147 2.05772 12.0147 4.61895C12.0147 5.50264 11.6602 6.78326 10.5793 7.57959C12.3692 8.28605 13.0107 9.8113 13.0107 11.2267ZM4.79032 3.93246V6.05433H6.91219C7.86329 6.05433 8.30515 5.59002 8.30515 4.99339C8.30515 4.39677 7.86329 3.93246 6.91219 3.93246H4.79032ZM9.2113 10.9371C9.2113 10.2082 8.61469 9.63406 7.53128 9.63406H4.79032V12.2402H7.53128C8.61469 12.2427 9.2113 11.6461 9.2113 10.9371Z" fill="white"/>
</svg>
